<svg xmlns="http://www.w3.org/2000/svg" width="62.023" height="62.227" viewBox="0 0 62.023 62.227"><defs><style>.a{fill:none;stroke:#170c3a;stroke-miterlimit:10;stroke-width:2px;}</style></defs><g transform="translate(-650.479 -5105.28)"><path class="a" d="M61.949,12.739l-6.973,4.406a1.3,1.3,0,0,1-1.532-.1l-2.875-2.4A1.3,1.3,0,0,1,50.15,14l-.913-3.2a1.3,1.3,0,0,1,.606-1.49L57.81,4.747a11.738,11.738,0,0,0-19.2,10.428,4.011,4.011,0,0,1-1.1,3.363L18.544,37.514a3.98,3.98,0,0,1-3.339,1.1A11.668,11.668,0,0,0,2.147,52.029l7.92-5a1.3,1.3,0,0,1,1.532.1l2.875,2.4a1.3,1.3,0,0,1,.419.644l.913,3.2a1.3,1.3,0,0,1-.606,1.49L6.761,59.685A11.728,11.728,0,0,0,25.375,48.71a3.945,3.945,0,0,1,1.079-3.337l18.9-18.9a3.964,3.964,0,0,1,3.349-1.1A11.737,11.737,0,0,0,62,13.739C62,13.4,61.977,13.07,61.949,12.739Z" transform="translate(649.502 5104.504)"/></g></svg>